<?xml version="1.0" standalone="no"?>
<!DOCTYPE svg PUBLIC "-//W3C//DTD SVG 20010904//EN"
 "http://www.w3.org/TR/2001/REC-SVG-20010904/DTD/svg10.dtd">
<svg version="1.0" xmlns="http://www.w3.org/2000/svg"
 width="256.000000pt" height="256.000000pt" viewBox="0 0 256.000000 256.000000"
 preserveAspectRatio="xMidYMid meet">
<metadata>
Created by potrace 1.11, written by Peter Selinger 2001-2013
</metadata>
<g transform="translate(0.000000,256.000000) scale(0.100000,-0.100000)"
fill="#000000" stroke="none">
<path d="M1401 1945 c-29 -7 -57 -19 -62 -26 -5 -8 -9 -39 -9 -69 -1 -57 -1
-1198 0 -1237 0 -28 33 -50 85 -59 54 -8 230 -9 280 0 75 13 76 16 75 246 0
112 1 202 3 199 3 -2 46 -85 97 -184 108 -210 126 -236 177 -260 38 -19 112
-23 155 -9 76 23 206 101 253 152 23 25 26 56 6 72 -5 4 -141 191 -236 325
-16 24 -52 73 -78 109 l-48 66 33 63 c18 34 36 64 41 65 4 2 7 7 7 12 0 5 56
110 125 233 69 124 125 232 125 240 0 8 -21 26 -47 38 -41 20 -67 24 -190 27
-99 3 -158 0 -189 -8 l-46 -13 -79 -165 c-44 -90 -79 -167 -79 -170 0 -4 -7
-16 -16 -27 -13 -18 -15 -6 -14 130 2 243 4 222 -32 241 -42 22 -259 27 -337
9z"/>
<path d="M167 1929 c-26 -9 -51 -19 -55 -23 -9 -9 -8 -927 1 -978 30 -168 154
-299 342 -364 68 -23 99 -28 210 -31 212 -5 350 42 455 154 63 67 74 85 103
162 19 53 20 80 22 550 1 545 5 517 -62 539 -18 6 -100 10 -185 9 -134 -2
-157 -5 -188 -23 l-35 -20 -5 -456 c-3 -251 -7 -458 -10 -461 -33 -29 -129
-30 -160 -2 -18 17 -19 37 -20 464 0 508 6 473 -90 491 -81 14 -266 8 -323
-11z"/>
</g>
</svg>
